<?xml version="1.0" encoding="UTF-8" standalone="no"?>
<!-- Created with Inkscape (http://www.inkscape.org/) -->

<svg
   width="44.197819mm"
   height="48.695431mm"
   viewBox="0 0 44.197819 48.695432"
   version="1.1"
   id="svg225"
   inkscape:version="1.2.2 (b0a8486541, 2022-12-01)"
   sodipodi:docname="biker.svg"
   xmlns:inkscape="http://www.inkscape.org/namespaces/inkscape"
   xmlns:sodipodi="http://sodipodi.sourceforge.net/DTD/sodipodi-0.dtd"
   xmlns="http://www.w3.org/2000/svg"
   xmlns:svg="http://www.w3.org/2000/svg">
  <sodipodi:namedview
     id="namedview227"
     pagecolor="#ffffff"
     bordercolor="#000000"
     borderopacity="0.25"
     inkscape:showpageshadow="2"
     inkscape:pageopacity="0.0"
     inkscape:pagecheckerboard="0"
     inkscape:deskcolor="#d1d1d1"
     inkscape:document-units="mm"
     showgrid="false"
     inkscape:zoom="4.2028808"
     inkscape:cx="35.451874"
     inkscape:cy="202.12327"
     inkscape:window-width="1920"
     inkscape:window-height="1022"
     inkscape:window-x="0"
     inkscape:window-y="0"
     inkscape:window-maximized="1"
     inkscape:current-layer="layer1" />
  <defs
     id="defs222" />
  <g
     inkscape:label="Layer 1"
     inkscape:groupmode="layer"
     id="layer1"
     transform="translate(-0.094,-0.55270876)">
    <path
       style="fill:#000000;stroke-width:0.264583"
       d="M 8.10055,49.228699 5.001,49.207799 4.67027,49.074349 4.33955,48.940899 v -1.03629 -1.03628 H 3.4135 2.48746 v -1.17541 -1.17542 l -1.12448,-0.0813 -1.12448,-0.0814 -0.0723,-4.53161 -0.0722,-4.53161 0.60143,-0.16113 0.60142,-0.16114 0.5801,-0.004 0.5801,-0.004 0.0814,-1.12448 0.0814,-1.12448 0.99218,-0.0821 0.99219,-0.0821 v -1.04236 -1.04236 h 3.30729 3.30729 v -1.04993 -1.04994 l -3.10885,-0.0745 -3.10885,-0.0746 -0.0814,-1.12448 -0.0814,-1.12448 h 3.19021 3.19021 v -4.6302 -4.63021 h 1.05833 1.05834 v -1.03003 -1.03002 l 0.41852,-0.1606 0.41851,-0.1606 h 0.63982 0.63982 v -5.4023202 -5.40232 l 0.1606,-0.41851 0.1606,-0.41852 h 1.03002 1.03003 v -1.06473 -1.06473004 l 4.43177,0.0725 4.43177,0.0725 0.0812,0.97654004 0.0812,0.97655 0.84485,0.0818 0.84486,0.0818 0.13229,1.19063 0.1323,1.19062 1.12447,0.0814 1.12448,0.0814 v 1.04312 1.04312 h -1.05833 -1.05833 v 2.24896 2.2489602 h 1.05833 1.05833 v 1.32291 1.32292 h -3.31781 -3.3178 l 0.0767,2.24658 0.0767,2.24657 2.05052,0.002 2.05052,0.002 v 1.05834 1.05833 h 1.04312 1.04312 l 0.0814,-1.12448 0.0814,-1.12448 h 1.19063 1.19062 l 0.0738,3.50573 0.0738,3.50573 h 3.16732 3.16732 v 1.03002 1.03003 l 0.41852,0.1606 0.41851,0.1606 h 0.63982 0.63982 v 1.05833 1.05834 H 40.8522 39.79386 v -1.06648 -1.06648 l -3.24114,0.0743 -3.24115,0.0743 -0.0816,0.98417 -0.0816,0.98416 3.38893,0.0742 3.38893,0.0742 0.0821,0.99219 0.0821,0.99219 h 0.62385 0.62385 l 0.41851,0.1606 0.41851,0.1606 v 1.03002 1.03003 h 0.63982 0.63982 l 0.41851,0.1606 0.41852,0.1606 v 4.6019 4.6019 H 43.2487 42.20558 l -0.0814,1.12448 -0.0814,1.12448 -0.97771,0.0812 -0.97771,0.0813 -0.0806,1.10936 -0.0806,1.10938 H 36.48658 33.047 l -0.0814,-1.12448 -0.0814,-1.12448 h -1.04312 -1.04312 v -1.19063 -1.19062 h -1.05209 -1.05208 l -0.0724,-4.56406 -0.0724,-4.56407 -0.85989,-0.0829 -0.8599,-0.0829 v 2.39802 2.39801 h -1.05833 -1.05834 v 0.92604 0.92604 h 1.05834 1.05833 v 1.32292 1.32292 h -1.04312 -1.04312 l -0.0814,1.12448 -0.0814,1.12448 -1.25677,0.0806 -1.25677,0.0806 v -1.19442 -1.19442 l -2.18281,-0.0769 -2.18281,-0.0768 -0.1323,-2.24896 -0.13229,-2.24896 -0.99219,-0.0821 -0.99218,-0.0821 v 1.0587 1.05869 l 0.26458,0.16352 0.26458,0.16352 v 1.17501 1.17501 h -1.05833 -1.05833 v 1.03002 1.03003 l -0.41852,0.1606 -0.41851,0.1606 h -0.63982 -0.63982 v 0.67885 0.67885 l -0.2739,0.51177 -0.27389,0.51178 z m -0.0568,-2.62495 h 0.76332 l 0.0814,-1.12447 0.0814,-1.12448 1.05834,-0.1323 1.05833,-0.13229 0.15008,-1.12448 0.15008,-1.12448 H 9.31839 7.25008 v -0.47625 -0.47625 l -0.27972,-0.27972 -0.27972,-0.27972 0.0813,-1.42684 0.0813,-1.42684 0.99219,-0.0821 0.99219,-0.0821 v -2.10069 -2.1007 H 8.04387 7.25012 v 1.05834 1.05833 H 6.207 5.16388 l -0.0814,1.12448 -0.0814,1.12448 -0.92605,0.13229 -0.92604,0.13229 -0.077,2.03391 -0.077,2.0339 1.00302,0.0828 1.00302,0.0828 0.0806,1.10937 0.0806,1.10937 0.97771,0.0813 0.97771,0.0813 0.0814,1.12448 0.0814,1.12447 z m 28.5651,-0.054 0.67136,-0.0783 0.0814,-1.12448 0.0814,-1.12448 h 1.02791 1.0279 l 0.0814,-1.12447 0.0814,-1.12448 1.00302,-0.0828 1.00302,-0.0828 -0.077,-2.0339 -0.077,-2.03391 -0.92604,-0.13229 -0.92604,-0.13229 -0.0814,-1.12448 -0.0814,-1.12448 h -1.04312 -1.04312 v -1.05833 -1.05834 H 36.5189 35.62525 l -0.27356,-0.33072 -0.27357,-0.33073 -0.12387,-0.66146 -0.12386,-0.66146 0.0981,1.32292 0.0982,1.32291 0.002,2.05052 0.002,2.05052 h 1.05833 1.05833 v 1.98438 1.98437 H 36.4859 35.82444 v -1.05833 -1.05833 H 34.7661 33.70777 v -2.38125 -2.38125 H 32.64944 31.5911 v -0.91043 -0.91043 l -0.19843,-0.1067 -0.19844,-0.1067 -1.12448,0.11888 -1.12448,0.11888 v 0.88006 0.88007 l 2.11667,0.18464 2.11666,0.18464 v 1.15646 1.15646 h -0.92604 -0.92604 v 2.10069 2.1007 l 0.99219,0.0821 0.99219,0.0821 0.0814,1.12448 0.0814,1.12447 h 1.04312 1.04312 v 1.01424 1.01424 l 0.18854,0.18853 0.18853,0.18854 0.67137,-0.0783 z m -24.94281,-6.6162 2.33084,-0.0767 0.0812,-0.97711 0.0812,-0.97712 0.97711,-0.0812 0.97712,-0.0812 v -1.05833 -1.05833 l 0.66145,-0.16714 0.66146,-0.16713 -1.77072,-0.0313 -1.77073,-0.0313 -0.0814,1.12448 -0.0814,1.12448 -2.11668,0.13229 -2.1166598,0.13229 -0.0819,1.13501 -0.0819,1.13501 z m 11.72355,-11.85064 h 1.05833 v -1.05833 -1.05834 h 1.05833 1.05834 v -1.19902 -1.19902 l -3.10886,0.0745 -3.10885,0.0745 -0.0814,1.12448 -0.0814,1.12447 h 1.07355 1.07354 v 1.05834 1.05833 z"
       id="path211" />
  </g>
</svg>
